<?xml version="1.0" encoding="UTF-8" standalone="no"?>
<!-- Created with Inkscape (http://www.inkscape.org/) -->

<svg
   xmlns:dc="http://purl.org/dc/elements/1.1/"
   xmlns:cc="http://creativecommons.org/ns#"
   xmlns:rdf="http://www.w3.org/1999/02/22-rdf-syntax-ns#"
   xmlns:svg="http://www.w3.org/2000/svg"
   xmlns="http://www.w3.org/2000/svg"
   xmlns:sodipodi="http://sodipodi.sourceforge.net/DTD/sodipodi-0.dtd"
   xmlns:inkscape="http://www.inkscape.org/namespaces/inkscape"
   version="1.1"
   id="svg2"
   xml:space="preserve"
   width="593.18665"
   height="556.74664"
   viewBox="0 0 593.18665 556.74664"
   sodipodi:docname="castle.svg"
   inkscape:version="0.92.4 5da689c313, 2019-01-14"><metadata
     id="metadata8"><rdf:RDF><cc:Work
         rdf:about=""><dc:format>image/svg+xml</dc:format><dc:type
           rdf:resource="http://purl.org/dc/dcmitype/StillImage" /><dc:title></dc:title></cc:Work></rdf:RDF></metadata><defs
     id="defs6"><clipPath
       clipPathUnits="userSpaceOnUse"
       id="clipPath18"><path
         d="M 0,600 H 600 V 0 H 0 Z"
         id="path16"
         inkscape:connector-curvature="0" /></clipPath></defs><sodipodi:namedview
     pagecolor="#ffffff"
     bordercolor="#666666"
     borderopacity="1"
     objecttolerance="10"
     gridtolerance="10"
     guidetolerance="10"
     inkscape:pageopacity="0"
     inkscape:pageshadow="2"
     inkscape:window-width="3440"
     inkscape:window-height="1376"
     id="namedview4"
     showgrid="false"
     fit-margin-top="10"
     fit-margin-left="10"
     fit-margin-right="10"
     fit-margin-bottom="10"
     inkscape:zoom="62.891845"
     inkscape:cx="332.68618"
     inkscape:cy="12.622618"
     inkscape:window-x="0"
     inkscape:window-y="27"
     inkscape:window-maximized="1"
     inkscape:current-layer="g10" /><g
     id="g10"
     inkscape:groupmode="layer"
     inkscape:label="castle-on-the-mountain-publicdomainvectors.org"
     transform="matrix(1.3333333,0,0,-1.3333333,-103.92533,715.11065)"><path
       d="m 299.846,528.833 21.33,-33.112 21.33,-33.112 h -42.66 -42.66 l 21.33,33.112 z"
       style="fill:#d64520;fill-opacity:1;fill-rule:evenodd;stroke:none"
       id="path24"
       inkscape:connector-curvature="0" /><path
       d="m 259.634,199.668 h 80.423 v 241.271 h -80.423 z"
       style="fill:#f6f8fd;fill-opacity:1;fill-rule:evenodd;stroke:none"
       id="path26"
       inkscape:connector-curvature="0" /><path
       d="m 244.806,484.92 h 15.331 v -14.577 h 22.108 v 14.577 h 35.201 v -14.577 h 22.109 v 14.577 h 15.331 v -48.003 h -110.08 z"
       style="fill:#e9eef9;fill-opacity:1;fill-rule:evenodd;stroke:none"
       id="path28"
       inkscape:connector-curvature="0" /><path
       d="m 260.137,484.92 h 5.026 v -14.577 h -5.026 z m 74.391,0 h 5.026 v -14.577 h -5.026 z"
       style="fill:#d8e0f4;fill-opacity:1;fill-rule:evenodd;stroke:none"
       id="path30"
       inkscape:connector-curvature="0" /><path
       d="m 292.433,411.217 v 0 c 5.627,-1.015 9.927,-5.968 9.927,-11.872 V 362.65 h -19.855 v 36.695 c 0,5.905 4.303,10.856 9.928,11.872"
       style="fill:#46454b;fill-opacity:1;fill-rule:evenodd;stroke:none"
       id="path32"
       inkscape:connector-curvature="0" /><path
       d="m 290.296,411.408 v 0 c 0.729,0 1.443,-0.066 2.137,-0.191 -5.625,-1.016 -9.928,-5.967 -9.928,-11.872 V 362.65 h -4.272 v 36.695 c 0,6.634 5.429,12.063 12.063,12.063"
       style="fill:#d2daf1;fill-opacity:1;fill-rule:evenodd;stroke:none"
       id="path34"
       inkscape:connector-curvature="0" /><path
       d="m 100.272,140.349 h 80.424 v 241.27 h -80.424 z"
       style="fill:#f6f8fd;fill-opacity:1;fill-rule:evenodd;stroke:none"
       id="path36"
       inkscape:connector-curvature="0" /><path
       d="m 85.444,425.6 h 15.33 v -14.576 h 22.109 V 425.6 h 35.201 v -14.576 h 22.108 V 425.6 h 15.331 V 377.597 H 85.444 Z"
       style="fill:#e9eef9;fill-opacity:1;fill-rule:evenodd;stroke:none"
       id="path38"
       inkscape:connector-curvature="0" /><path
       d="m 100.774,425.6 h 5.026 v -14.576 h -5.026 z m 74.393,0 h 5.025 v -14.576 h -5.025 z"
       style="fill:#d8e0f4;fill-opacity:1;fill-rule:evenodd;stroke:none"
       id="path40"
       inkscape:connector-curvature="0" /><path
       d="m 133.07,351.896 h 0.001 c 5.626,-1.015 9.927,-5.968 9.927,-11.873 v -36.694 h -19.854 v 36.694 c 0,5.907 4.302,10.857 9.926,11.873"
       style="fill:#46454b;fill-opacity:1;fill-rule:evenodd;stroke:none"
       id="path42"
       inkscape:connector-curvature="0" /><path
       d="m 130.935,352.087 v 0 c 0.728,0 1.442,-0.066 2.136,-0.191 -5.625,-1.016 -9.927,-5.966 -9.927,-11.873 v -36.694 h -4.273 v 36.694 c 0,6.636 5.428,12.064 12.064,12.064"
       style="fill:#d2daf1;fill-opacity:1;fill-rule:evenodd;stroke:none"
       id="path44"
       inkscape:connector-curvature="0" /><path
       d="m 420.082,140.349 h 80.424 v 241.27 h -80.424 z"
       style="fill:#f6f8fd;fill-opacity:1;fill-rule:evenodd;stroke:none"
       id="path46"
       inkscape:connector-curvature="0" /><path
       d="m 515.334,425.6 h -15.33 V 411.024 H 477.895 V 425.6 h -35.2 v -14.576 h -22.11 V 425.6 h -15.33 v -48.003 h 110.079 z"
       style="fill:#e9eef9;fill-opacity:1;fill-rule:evenodd;stroke:none"
       id="path48"
       inkscape:connector-curvature="0" /><path
       d="m 500.004,425.6 h -5.027 v -14.576 h 5.027 z m -74.393,0 h -5.026 v -14.576 h 5.026 z"
       style="fill:#d8e0f4;fill-opacity:1;fill-rule:evenodd;stroke:none"
       id="path50"
       inkscape:connector-curvature="0" /><path
       d="m 467.708,351.896 v 0 c -5.627,-1.015 -9.929,-5.968 -9.929,-11.873 v -36.694 h 19.856 v 36.694 c 0,5.907 -4.302,10.857 -9.927,11.873"
       style="fill:#46454b;fill-opacity:1;fill-rule:evenodd;stroke:none"
       id="path52"
       inkscape:connector-curvature="0" /><path
       d="m 469.843,352.087 v 0 c -0.728,0 -1.442,-0.066 -2.135,-0.191 5.625,-1.016 9.927,-5.966 9.927,-11.873 v -36.694 h 4.272 v 36.694 c 0,6.636 -5.429,12.064 -12.064,12.064"
       style="fill:#d2daf1;fill-opacity:1;fill-rule:evenodd;stroke:none"
       id="path54"
       inkscape:connector-curvature="0" /><path
       d="m 163.166,337.386 h 32.162 v 20.865 h 35.2 v -20.865 h 23.107 v 20.865 h 35.201 v -20.865 h 23.106 v 20.865 h 35.201 v -20.865 h 23.108 v 20.865 h 35.198 v -20.865 h 32.162 V 126.273 H 163.166 Z"
       style="fill:#e9eef9;fill-opacity:1;fill-rule:evenodd;stroke:none"
       id="path56"
       inkscape:connector-curvature="0" /><path
       d="m 300.389,264.0152 v 0 c 28.614,0 52.024,-23.409 52.024,-52.022 v -85.701 H 248.365 v 85.701 c 0,28.613 23.411,52.022 52.024,52.022"
       style="fill:#46454b;fill-opacity:1;fill-rule:evenodd;stroke:none"
       id="path58"
       inkscape:connector-curvature="0" /></g></svg>