<?xml version="1.0" encoding="UTF-8" standalone="no"?>
<!-- Created with Inkscape (http://www.inkscape.org/) -->

<svg
   xmlns:dc="http://purl.org/dc/elements/1.1/"
   xmlns:cc="http://creativecommons.org/ns#"
   xmlns:rdf="http://www.w3.org/1999/02/22-rdf-syntax-ns#"
   xmlns:svg="http://www.w3.org/2000/svg"
   xmlns="http://www.w3.org/2000/svg"
   xmlns:sodipodi="http://sodipodi.sourceforge.net/DTD/sodipodi-0.dtd"
   xmlns:inkscape="http://www.inkscape.org/namespaces/inkscape"
   version="1.1"
   id="svg1228"
   xml:space="preserve"
   width="839.82947"
   height="809.39142"
   viewBox="0 0 839.82945 809.39139"
   sodipodi:docname="castle.svg"
   inkscape:version="0.92.4 5da689c313, 2019-01-14"><metadata
     id="metadata1234"><rdf:RDF><cc:Work
         rdf:about=""><dc:format>image/svg+xml</dc:format><dc:type
           rdf:resource="http://purl.org/dc/dcmitype/StillImage" /><dc:title></dc:title></cc:Work></rdf:RDF></metadata><defs
     id="defs1232"><clipPath
       clipPathUnits="userSpaceOnUse"
       id="clipPath1246"><path
         d="M 0,980 H 1400 V 0 H 0 Z"
         id="path1244"
         inkscape:connector-curvature="0" /></clipPath></defs><sodipodi:namedview
     pagecolor="#ffffff"
     bordercolor="#666666"
     borderopacity="1"
     objecttolerance="10"
     gridtolerance="10"
     guidetolerance="10"
     inkscape:pageopacity="0"
     inkscape:pageshadow="2"
     inkscape:window-width="3440"
     inkscape:window-height="1376"
     id="namedview1230"
     showgrid="false"
     inkscape:zoom="0.59559707"
     inkscape:cx="403.87326"
     inkscape:cy="325.95393"
     inkscape:window-x="2560"
     inkscape:window-y="27"
     inkscape:window-maximized="1"
     inkscape:current-layer="g1242"
     fit-margin-top="0"
     fit-margin-left="0"
     fit-margin-right="0"
     fit-margin-bottom="0" /><g
     id="g1236"
     inkscape:groupmode="layer"
     inkscape:label="Vector_Kingdom_2"
     transform="matrix(1.3333333,0,0,-1.3333333,-529.46011,1136.7708)"><g
       clip-path="url(#clipPath1246)"
       id="g1242"
       transform="translate(21.40709,60.443549)"><path
         inkscape:connector-curvature="0"
         id="path1522"
         style="fill:#dbdbdb;fill-opacity:1;fill-rule:nonzero;stroke:none"
         d="M 845.875,361.32 H 709.504 v 280.462 h 136.371 z" /><path
         inkscape:connector-curvature="0"
         id="path1524"
         style="fill:#b6b7b8;fill-opacity:1;fill-rule:nonzero;stroke:none"
         d="m 778.052,361.32 h 67.823 v 280.462 h -67.823 z" /><g
         transform="translate(845.8749,462.0088)"
         id="g1526"><path
           inkscape:connector-curvature="0"
           id="path1528"
           style="fill:#929294;fill-opacity:1;fill-rule:nonzero;stroke:none"
           d="M 0,0 -85.541,85.541 -91.524,-89.817 H 0 Z" /></g><g
         transform="translate(778.0522,372.192)"
         id="g1530"><path
           inkscape:connector-curvature="0"
           id="path1532"
           style="fill:#6d6e70;fill-opacity:1;fill-rule:nonzero;stroke:none"
           d="M 0,0 H 67.823 V 89.817 L 0,157.639 Z" /></g><path
         inkscape:connector-curvature="0"
         id="path1534"
         style="fill:#dbdbdb;fill-opacity:1;fill-rule:nonzero;stroke:none"
         d="M 655.523,361 H 519.152 v 280.462 h 136.371 z" /><path
         inkscape:connector-curvature="0"
         id="path1536"
         style="fill:#b6b7b8;fill-opacity:1;fill-rule:nonzero;stroke:none"
         d="m 587.7,361 h 67.823 V 641.462 H 587.7 Z" /><g
         transform="translate(519.1514,361.0005)"
         id="g1538"><path
           inkscape:connector-curvature="0"
           id="path1540"
           style="fill:#929294;fill-opacity:1;fill-rule:nonzero;stroke:none"
           d="M 0,0 H 77.869 V 109.268 L 0,187.136 Z" /></g><g
         transform="translate(777.6892,588.8224)"
         id="g1542"><path
           inkscape:connector-curvature="0"
           id="path1544"
           style="fill:#29282a;fill-opacity:1;fill-rule:nonzero;stroke:none"
           d="m 0,0 c -8.153,0 -14.762,-6.609 -14.762,-14.762 v -25.64 h 29.524 v 25.64 C 14.762,-6.609 8.153,0 0,0" /></g><path
         inkscape:connector-curvature="0"
         id="path1546"
         style="fill:#8f5c29;fill-opacity:1;fill-rule:nonzero;stroke:none"
         d="M 853.746,659.99 H 702.358 v -18.207 h 151.388 z" /><g
         transform="translate(702.3583,659.9896)"
         id="g1548"><path
           inkscape:connector-curvature="0"
           id="path1550"
           style="fill:#b16d29;fill-opacity:1;fill-rule:nonzero;stroke:none"
           d="M 0,0 75.694,132.145 151.388,0 Z" /></g><path
         inkscape:connector-curvature="0"
         id="path1552"
         style="fill:#6d4a2a;fill-opacity:1;fill-rule:nonzero;stroke:none"
         d="m 778.052,641.782 h 75.694 v 18.207 h -75.694 z" /><g
         transform="translate(853.746,659.9896)"
         id="g1554"><path
           inkscape:connector-curvature="0"
           id="path1556"
           style="fill:#8f5c29;fill-opacity:1;fill-rule:nonzero;stroke:none"
           d="M 0,0 -75.694,132.145 V 0 Z" /></g><g
         transform="translate(778.0522,588.8041)"
         id="g1558"><path
           inkscape:connector-curvature="0"
           id="path1560"
           style="fill:#121112;fill-opacity:1;fill-rule:nonzero;stroke:none"
           d="m 0,0 v -40.384 h 14.399 v 25.64 C 14.399,-6.714 7.983,-0.195 0,0" /></g><g
         transform="translate(587.337,588.503)"
         id="g1562"><path
           inkscape:connector-curvature="0"
           id="path1564"
           style="fill:#29282a;fill-opacity:1;fill-rule:nonzero;stroke:none"
           d="m 0,0 c -8.153,0 -14.762,-6.609 -14.762,-14.762 v -25.64 h 29.524 v 25.64 C 14.762,-6.609 8.153,0 0,0" /></g><path
         inkscape:connector-curvature="0"
         id="path1566"
         style="fill:#8f5c29;fill-opacity:1;fill-rule:nonzero;stroke:none"
         d="M 663.394,659.67 H 512.006 v -18.207 h 151.388 z" /><g
         transform="translate(512.006,659.6702)"
         id="g1568"><path
           inkscape:connector-curvature="0"
           id="path1570"
           style="fill:#b16d29;fill-opacity:1;fill-rule:nonzero;stroke:none"
           d="M 0,0 75.694,132.145 151.388,0 Z" /></g><g
         transform="translate(663.3936,659.6703)"
         id="g1572"><path
           inkscape:connector-curvature="0"
           id="path1574"
           style="fill:#8f5c29;fill-opacity:1;fill-rule:nonzero;stroke:none"
           d="M 0,0 -75.694,132.145 V 0 Z" /></g><path
         inkscape:connector-curvature="0"
         id="path1576"
         style="fill:#6d4a2a;fill-opacity:1;fill-rule:nonzero;stroke:none"
         d="m 587.7,641.463 h 75.694 v 18.208 H 587.7 Z" /><g
         transform="translate(587.6998,588.4847)"
         id="g1578"><path
           inkscape:connector-curvature="0"
           id="path1580"
           style="fill:#121112;fill-opacity:1;fill-rule:nonzero;stroke:none"
           d="m 0,0 v -40.384 h 14.399 v 25.64 C 14.399,-6.713 7.984,-0.195 0,0" /></g><g
         transform="translate(798.66,465.7585)"
         id="g1582"><path
           inkscape:connector-curvature="0"
           id="path1584"
           style="fill:#b16d29;fill-opacity:1;fill-rule:nonzero;stroke:none"
           d="m 0,0 h -231.872 l 38.326,81.791 h 155.22 z" /></g><path
         inkscape:connector-curvature="0"
         id="path1586"
         style="fill:#b6b7b8;fill-opacity:1;fill-rule:nonzero;stroke:none"
         d="M 777.261,362.484 H 588.186 v 103.275 h 189.075 z" /><path
         inkscape:connector-curvature="0"
         id="path1588"
         style="fill:#929294;fill-opacity:1;fill-rule:nonzero;stroke:none"
         d="m 682.724,362.484 h 94.537 v 103.275 h -94.537 z" /><g
         transform="translate(682.724,465.7585)"
         id="g1590"><path
           inkscape:connector-curvature="0"
           id="path1592"
           style="fill:#8f5c29;fill-opacity:1;fill-rule:nonzero;stroke:none"
           d="M 0,0 H 115.936 L 77.61,81.791 H 0 Z" /></g><g
         transform="translate(635.8159,431.9057)"
         id="g1594"><path
           inkscape:connector-curvature="0"
           id="path1596"
           style="fill:#29282a;fill-opacity:1;fill-rule:nonzero;stroke:none"
           d="m 0,0 c -14.013,0 -25.374,-11.36 -25.374,-25.374 v -44.07 h 50.748 v 44.07 C 25.374,-11.36 14.013,0 0,0" /></g><g
         transform="translate(724.7366,431.9057)"
         id="g1598"><path
           inkscape:connector-curvature="0"
           id="path1600"
           style="fill:#121112;fill-opacity:1;fill-rule:nonzero;stroke:none"
           d="m 0,0 c -14.013,0 -25.374,-11.36 -25.374,-25.374 v -44.07 h 50.748 v 44.07 C 25.374,-11.36 14.013,0 0,0" /></g><path
         inkscape:connector-curvature="0"
         id="path1602"
         style="fill:#dbdbdb;fill-opacity:1;fill-rule:nonzero;stroke:none"
         d="M 519.205,185.091 H 382.834 v 280.462 h 136.371 z" /><g
         transform="translate(846.3182,402.201)"
         id="g1604"><path
           inkscape:connector-curvature="0"
           id="path1606"
           style="fill:#ffffff;fill-opacity:1;fill-rule:nonzero;stroke:none"
           d="M 0,0 H -31.668 V -22.676 H -59.07 V 0 h -31.667 v -22.676 h -27.402 V 0 h -0.173 -31.495 -0.173 v -22.676 h -27.402 V 0 h -31.667 v -22.676 h -27.402 V 0 h -31.668 v -22.676 h -27.402 V 0 h -31.667 v -22.676 -18.205 h 177.381 31.495 118.303 z" /></g><path
         inkscape:connector-curvature="0"
         id="path1608"
         style="fill:#dbdbdb;fill-opacity:1;fill-rule:nonzero;stroke:none"
         d="M 846.134,185.091 H 518.946 v 176.938 h 327.188 z" /><g
         transform="translate(451.0192,412.594)"
         id="g1610"><path
           inkscape:connector-curvature="0"
           id="path1612"
           style="fill:#29282a;fill-opacity:1;fill-rule:nonzero;stroke:none"
           d="m 0,0 c -8.153,0 -14.762,-6.609 -14.762,-14.762 v -25.64 h 29.524 v 25.64 C 14.762,-6.609 8.153,0 0,0" /></g><path
         inkscape:connector-curvature="0"
         id="path1614"
         style="fill:#6d6e70;fill-opacity:1;fill-rule:nonzero;stroke:none"
         d="M 518.839,185.091 H 382.833 v 32.098 h 136.006 z" /><path
         inkscape:connector-curvature="0"
         id="path1616"
         style="fill:#6d6e70;fill-opacity:1;fill-rule:nonzero;stroke:none"
         d="M 846.097,185.091 H 519.161 v 28.585 h 326.936 z" /><path
         inkscape:connector-curvature="0"
         id="path1618"
         style="fill:#8f5c29;fill-opacity:1;fill-rule:nonzero;stroke:none"
         d="M 527.076,483.761 H 375.688 v -18.207 h 151.388 z" /><g
         transform="translate(375.6882,483.7612)"
         id="g1620"><path
           inkscape:connector-curvature="0"
           id="path1622"
           style="fill:#b16d29;fill-opacity:1;fill-rule:nonzero;stroke:none"
           d="M 0,0 75.694,132.145 151.388,0 Z" /></g><path
         inkscape:connector-curvature="0"
         id="path1630"
         style="fill:#dbdbdb;fill-opacity:1;fill-rule:nonzero;stroke:none"
         d="M 982.895,185.091 H 846.524 v 280.462 h 136.371 z" /><g
         transform="translate(914.7095,412.594)"
         id="g1632"><path
           inkscape:connector-curvature="0"
           id="path1634"
           style="fill:#29282a;fill-opacity:1;fill-rule:nonzero;stroke:none"
           d="m 0,0 c -8.153,0 -14.762,-6.609 -14.762,-14.762 v -25.64 h 29.524 v 25.64 C 14.762,-6.609 8.153,0 0,0" /></g><path
         inkscape:connector-curvature="0"
         id="path1636"
         style="fill:#6d6e70;fill-opacity:1;fill-rule:nonzero;stroke:none"
         d="M 982.895,185.091 H 846.524 v 32.098 h 136.371 z" /><g
         transform="translate(978.0121,520.4982)"
         id="g1638"><path
           inkscape:connector-curvature="0"
           id="path1640"
           style="fill:#ffffff;fill-opacity:1;fill-rule:nonzero;stroke:none"
           d="M 0,0 V -19.726 H -23.837 V 0 H -51.384 V -19.726 H -75.221 V 0 h -27.548 v -19.726 h -23.836 V 0 h -27.548 V -19.726 -35.562 H 27.548 V -19.726 0 Z" /></g><g
         transform="translate(997.8947,465.7585)"
         id="g1642"><path
           inkscape:connector-curvature="0"
           id="path1644"
           style="fill:#b6b7b8;fill-opacity:1;fill-rule:nonzero;stroke:none"
           d="m 0,0 h -166.37 l -7.666,19.177 H 7.665 Z" /></g><path
         inkscape:connector-curvature="0"
         id="path1646"
         style="fill:#b6b7b8;fill-opacity:1;fill-rule:nonzero;stroke:none"
         d="m 451.019,185.091 h 68.186 v 280.462 h -68.186 z" /><path
         inkscape:connector-curvature="0"
         id="path1648"
         style="fill:#565759;fill-opacity:1;fill-rule:nonzero;stroke:none"
         d="m 451.019,185.091 h 67.82 v 32.098 h -67.82 z" /><g
         transform="translate(451.0192,412.5941)"
         id="g1650"><path
           inkscape:connector-curvature="0"
           id="path1652"
           style="fill:#121112;fill-opacity:1;fill-rule:nonzero;stroke:none"
           d="m 0,0 v -40.402 h 14.762 v 25.64 C 14.762,-6.609 8.153,0 0,0" /></g><path
         inkscape:connector-curvature="0"
         id="path1654"
         style="fill:#6d4a2a;fill-opacity:1;fill-rule:nonzero;stroke:none"
         d="m 451.019,465.554 h 76.057 v 18.207 h -76.057 z" /><g
         transform="translate(451.0192,483.7612)"
         id="g1656"><path
           inkscape:connector-curvature="0"
           id="path1658"
           style="fill:#8f5c29;fill-opacity:1;fill-rule:nonzero;stroke:none"
           d="M 0,0 H 76.057 L 0.363,132.145 0,131.511 Z" /></g><path
         inkscape:connector-curvature="0"
         id="path1660"
         style="fill:#b6b7b8;fill-opacity:1;fill-rule:nonzero;stroke:none"
         d="m 682.724,185.091 h 163.41 v 176.938 h -163.41 z" /><path
         inkscape:connector-curvature="0"
         id="path1662"
         style="fill:#565759;fill-opacity:1;fill-rule:nonzero;stroke:none"
         d="m 682.724,185.091 h 163.373 v 28.585 H 682.724 Z" /><g
         transform="translate(814.6505,379.5247)"
         id="g1664"><path
           inkscape:connector-curvature="0"
           id="path1666"
           style="fill:#dbdbdb;fill-opacity:1;fill-rule:nonzero;stroke:none"
           d="M 0,0 H -27.402 V 22.676 H -59.07 V 0 h -27.401 v 22.676 h -0.173 -31.495 -0.173 V 0 h -13.614 v -18.205 h 13.787 31.495 118.303 l 0.009,40.881 H 0 Z" /></g><path
         inkscape:connector-curvature="0"
         id="path1668"
         style="fill:#b6b7b8;fill-opacity:1;fill-rule:nonzero;stroke:none"
         d="m 914.71,185.091 h 68.186 V 465.553 H 914.71 Z" /><path
         inkscape:connector-curvature="0"
         id="path1670"
         style="fill:#565759;fill-opacity:1;fill-rule:nonzero;stroke:none"
         d="m 914.71,185.091 h 68.186 v 32.098 H 914.71 Z" /><g
         transform="translate(929.4718,372.192)"
         id="g1672"><path
           inkscape:connector-curvature="0"
           id="path1674"
           style="fill:#121112;fill-opacity:1;fill-rule:nonzero;stroke:none"
           d="m 0,0 v 25.64 c 0,8.153 -6.609,14.762 -14.762,14.762 V 0 Z" /></g><g
         transform="translate(914.7096,465.7585)"
         id="g1676"><path
           inkscape:connector-curvature="0"
           id="path1678"
           style="fill:#929294;fill-opacity:1;fill-rule:nonzero;stroke:none"
           d="M 0,0 H 83.185 L 90.85,19.177 H 0 Z" /></g><g
         transform="translate(978.012,500.7723)"
         id="g1680"><path
           inkscape:connector-curvature="0"
           id="path1682"
           style="fill:#dbdbdb;fill-opacity:1;fill-rule:nonzero;stroke:none"
           d="M 0,0 H -23.836 V 19.726 H -51.384 V 0 h -11.918 v -15.836 h 90.85 V 0 19.726 H 0 Z" /></g><g
         transform="translate(682.7239,316.662)"
         id="g1684"><path
           inkscape:connector-curvature="0"
           id="path1686"
           style="fill:#8f5c29;fill-opacity:1;fill-rule:nonzero;stroke:none"
           d="m 0,0 c -0.161,0 -0.319,-0.01 -0.479,-0.012 v -131.559 h 21.79 V -5.643 C 15.024,-2.058 7.755,0 0,0" /></g><g
         transform="translate(704.035,311.0192)"
         id="g1688"><path
           inkscape:connector-curvature="0"
           id="path1690"
           style="fill:#6d4a2a;fill-opacity:1;fill-rule:nonzero;stroke:none"
           d="m 0,0 v -125.928 h 21.79 v 88.47 C 21.79,-21.409 13.011,-7.419 0,0" /></g><g
         transform="translate(639.6233,273.5613)"
         id="g1692"><path
           inkscape:connector-curvature="0"
           id="path1694"
           style="fill:#8f5c29;fill-opacity:1;fill-rule:nonzero;stroke:none"
           d="M 0,0 V -88.47 H 20.832 V 36.907 C 8.347,29.358 0,15.655 0,0" /></g><g
         transform="translate(660.4555,310.4686)"
         id="g1696"><path
           inkscape:connector-curvature="0"
           id="path1698"
           style="fill:#b16d29;fill-opacity:1;fill-rule:nonzero;stroke:none"
           d="M 0,0 V -125.377 H 21.79 V 6.181 C 13.822,6.094 6.371,3.852 0,0" /></g></g></g></svg>