<?xml version="1.0" encoding="UTF-8" standalone="no"?>
<!-- Created with Inkscape (http://www.inkscape.org/) -->

<svg
   xmlns:dc="http://purl.org/dc/elements/1.1/"
   xmlns:cc="http://creativecommons.org/ns#"
   xmlns:rdf="http://www.w3.org/1999/02/22-rdf-syntax-ns#"
   xmlns:svg="http://www.w3.org/2000/svg"
   xmlns="http://www.w3.org/2000/svg"
   xmlns:sodipodi="http://sodipodi.sourceforge.net/DTD/sodipodi-0.dtd"
   xmlns:inkscape="http://www.inkscape.org/namespaces/inkscape"
   id="svg1504"
   version="1.1"
   viewBox="0 0 69.947976 45.887985"
   height="173.43491"
   width="264.3703"
   inkscape:version="0.92.4 5da689c313, 2019-01-14"
   sodipodi:docname="gear.svg">
  <defs
     id="defs1498" />
  <sodipodi:namedview
     id="base"
     pagecolor="#ffffff"
     bordercolor="#666666"
     borderopacity="1.0"
     inkscape:pageopacity="0.0"
     inkscape:pageshadow="2"
     inkscape:zoom="3.86022"
     inkscape:cx="114.75213"
     inkscape:cy="101.35731"
     inkscape:document-units="mm"
     inkscape:current-layer="layer1"
     showgrid="false"
     inkscape:window-width="3440"
     inkscape:window-height="1376"
     inkscape:window-x="0"
     inkscape:window-y="27"
     inkscape:window-maximized="1"
     fit-margin-top="10"
     fit-margin-left="10"
     fit-margin-right="10"
     fit-margin-bottom="10"
     units="px" />
  <metadata
     id="metadata1501">
    <rdf:RDF>
      <cc:Work
         rdf:about="">
        <dc:format>image/svg+xml</dc:format>
        <dc:type
           rdf:resource="http://purl.org/dc/dcmitype/StillImage" />
        <dc:title></dc:title>
      </cc:Work>
    </rdf:RDF>
  </metadata>
  <g
     inkscape:label="Layer 1"
     inkscape:groupmode="layer"
     id="layer1"
     transform="translate(-52.466291,-139.15036)">
    <g
       id="g1564"
       transform="rotate(180,87.45522,162.0578)">
      <rect
         y="147.44867"
         x="78.166512"
         height="29.321812"
         width="19.483253"
         id="rect1527-6"
         style="fill:#00ff00;fill-opacity:1;stroke:none;stroke-width:1.32578313;stroke-linecap:round;stroke-miterlimit:4;stroke-dasharray:none;stroke-opacity:1;paint-order:normal" />
      <path
         sodipodi:nodetypes="ccccc"
         inkscape:connector-curvature="0"
         id="rect1527-3"
         d="m 94.180405,148.67928 11.536875,1.5079 2.19332,20.82105 -13.730195,6.71702 z"
         style="fill:#0000ff;fill-opacity:1;stroke:none;stroke-width:1.09099865;stroke-linecap:round;stroke-miterlimit:4;stroke-dasharray:none;stroke-opacity:1;paint-order:normal" />
      <path
         sodipodi:nodetypes="ccccc"
         inkscape:connector-curvature="0"
         id="rect1527"
         d="m 67.921092,151.85965 12.776915,-1.98769 v 24.81449 l -12.297128,-1.85061 z"
         style="fill:#fc0000;fill-opacity:1;stroke:none;stroke-width:1.07397115;stroke-linecap:round;stroke-miterlimit:4;stroke-dasharray:none;stroke-opacity:1;paint-order:normal" />
    </g>
    <path
       d="m 87.606656,141.79619 c -17.053784,0 -32.494532,20.29816 -32.494532,20.29816 0,0 15.440748,20.29816 32.494532,20.29816 16.721024,0 32.161774,-20.29816 32.161774,-20.29816 0,0 -15.44075,-20.29816 -32.161774,-20.29816 z m -0.166378,33.858 c -7.403838,0 -18.851505,-5.98962 -18.851505,-13.55984 0,-7.40384 11.364477,-13.55984 18.851505,-13.55984 7.487027,0 18.851512,6.07281 18.851512,13.55984 0,7.48703 -11.364485,13.55984 -18.851512,13.55984 z m 6.738324,-13.55984 c 0,3.74352 -2.994811,6.73833 -6.738324,6.73833 -3.743514,0 -6.738325,-2.99481 -6.738325,-6.73833 0,-3.74351 2.994811,-6.73832 6.738325,-6.73832 3.743513,0 6.738324,2.99481 6.738324,6.73832 z"
       class="st0"
       id="XMLID_6_"
       inkscape:connector-curvature="0"
       style="stroke-width:0.83189189"
       sodipodi:nodetypes="scscsssssssssss" />
  </g>
</svg>
