<?xml version="1.0" encoding="UTF-8" standalone="no"?>
<!-- Created with Inkscape (http://www.inkscape.org/) -->

<svg
   xmlns:dc="http://purl.org/dc/elements/1.1/"
   xmlns:cc="http://creativecommons.org/ns#"
   xmlns:rdf="http://www.w3.org/1999/02/22-rdf-syntax-ns#"
   xmlns:svg="http://www.w3.org/2000/svg"
   xmlns="http://www.w3.org/2000/svg"
   xmlns:sodipodi="http://sodipodi.sourceforge.net/DTD/sodipodi-0.dtd"
   xmlns:inkscape="http://www.inkscape.org/namespaces/inkscape"
   width="210mm"
   height="297mm"
   viewBox="0 0 210 297"
   version="1.1"
   id="svg3450"
   inkscape:version="0.92.4 5da689c313, 2019-01-14"
   sodipodi:docname="thumb_hover.svg">
  <defs
     id="defs3444" />
  <sodipodi:namedview
     id="base"
     pagecolor="#ffffff"
     bordercolor="#666666"
     borderopacity="1.0"
     inkscape:pageopacity="0.0"
     inkscape:pageshadow="2"
     inkscape:zoom="1.6488281"
     inkscape:cx="276.27576"
     inkscape:cy="560"
     inkscape:document-units="mm"
     inkscape:current-layer="layer1"
     showgrid="false"
     inkscape:window-width="3440"
     inkscape:window-height="1376"
     inkscape:window-x="2560"
     inkscape:window-y="27"
     inkscape:window-maximized="1" />
  <metadata
     id="metadata3447">
    <rdf:RDF>
      <cc:Work
         rdf:about="">
        <dc:format>image/svg+xml</dc:format>
        <dc:type
           rdf:resource="http://purl.org/dc/dcmitype/StillImage" />
        <dc:title></dc:title>
      </cc:Work>
    </rdf:RDF>
  </metadata>
  <g
     inkscape:label="Layer 1"
     inkscape:groupmode="layer"
     id="layer1">
    <path
       style="fill:#fa6149;stroke-width:10;stroke:#fa6149;stroke-opacity:1;stroke-miterlimit:4;stroke-dasharray:none;fill-opacity:1"
       d="m 99.492359,236.65163 c -4.796472,-0.22343 -13.193659,-1.25339 -16.66846,-2.04449 -4.971091,-1.13175 -6.689115,-1.95516 -9.030579,-4.32812 -1.602023,-1.62357 -2.485774,-2.19751 -4.434346,-2.87982 -2.382347,-0.8342 -2.697875,-0.85341 -14.989679,-0.91224 -11.376904,-0.0545 -12.837714,-0.12875 -15.554713,-0.79106 -8.611757,-2.09925 -14.252121,-5.76371 -16.60252,-10.7864 l -1.05157,-2.24715 0.09579,-30.65829 0.09579,-30.65828 1.010502,-1.82323 c 3.393151,-6.12221 11.111373,-10.02532 21.920054,-11.085 6.647215,-0.65169 20.912592,-0.11858 24.127071,0.90166 0.483997,0.15361 1.132967,-0.45097 2.718248,-2.53231 3.418999,-4.48888 8.622136,-10.64579 11.96195,-14.15467 4.227823,-4.44184 8.206666,-7.57273 11.816341,-9.29809 1.649236,-0.7883 4.054994,-2.1383 5.346132,-2.99999 4.52416,-3.01938 10.17193,-9.47596 13.50964,-15.444334 l 1.28899,-2.304928 0.31471,-6.436499 c 0.33783,-6.909233 0.84308,-9.397039 2.36098,-11.62521 1.37241,-2.014606 3.2314,-2.572141 8.57677,-2.572283 4.07751,-1.08e-4 4.5559,0.07168 6.35,0.952895 3.59748,1.766985 6.25637,5.404434 8.19787,11.21495 1.00055,2.994427 1.11772,3.770553 1.0923,7.234815 -0.032,4.363808 -0.66095,7.682298 -2.22419,11.735904 -1.8554,4.81122 -4.58717,8.42759 -10.50866,13.91155 -1.1945,1.10624 -2.77386,2.9181 -3.50971,4.02636 -1.21855,1.83527 -1.33789,2.22809 -1.33789,4.40368 0,2.16846 0.0967,2.48958 1.04854,3.48311 1.75369,1.83047 3.30916,2.04849 16.41396,2.30073 25.43013,0.48946 29.25576,0.87702 34.75193,3.52057 3.28999,1.58242 5.42932,3.5238 6.88345,6.24655 1.03115,1.93075 1.21103,2.64547 1.3409,5.32792 0.25859,5.34121 -1.06475,10.0128 -3.6513,12.88966 -0.85762,0.95389 -2.03971,1.93333 -2.62687,2.17653 -0.58715,0.24321 -1.06755,0.51092 -1.06755,0.59492 0,0.084 0.48308,0.66005 1.07351,1.28012 1.68427,1.7688 4.09058,5.84571 4.93394,8.35934 0.6074,1.81033 0.73719,2.86035 0.61657,4.98781 -0.19853,3.50139 -1.41987,6.04994 -4.22102,8.80794 l -2.07864,2.04662 0.84712,1.69201 c 1.82283,3.64082 2.51374,6.4222 2.52348,10.15868 0.008,3.15398 -0.0947,3.73936 -0.97144,5.52469 -1.20973,2.46339 -3.1779,4.28392 -6.11958,5.66049 -1.23661,0.57868 -2.24839,1.17655 -2.24839,1.32859 0,0.15205 0.26253,0.89115 0.58339,1.64245 0.78822,1.84559 0.76421,6.18877 -0.0446,8.06877 -2.25316,5.23729 -8.13483,9.32542 -18.00129,12.51202 -5.16253,1.66736 -6.78723,1.86186 -20.63253,2.46993 -7.41299,0.32558 -28.25205,0.39933 -34.224411,0.12113 z"
       id="path4092"
       inkscape:connector-curvature="0" />
  </g>
</svg>
